<svg fill="none" xmlns="http://www.w3.org/2000/svg" viewBox="0 0 128 128"><path d="M20 59V45h12v6h8v6h6V39h8v8h6V33h12v14h6v-8h8v12h6v-6h8v24h-6v14h-6v12h-6v-6h-6v6H50v-6h-6v-6h-6v-6h-6V65h-6v-6h-6Z" fill="#fff"/><path d="M20 65v-6h6v6h-6ZM32 77h-6V65h6v12ZM38 83h-6v-6h6v6ZM44 89h-6v-6h6v6ZM76 95v6H44V89h6v6h26ZM82 95h-6v-6h6v6ZM94 83v18H82v-6h6V83h6ZM100 69v14h-6V69h6ZM72 33h20v6h14v30h-6V45h-8v6h-6V39h-8v8h-6V33ZM60 33v-6h12v6H60ZM32 45h8V33h20v14h-6v-8h-8v18h-6v-6h-8v-6ZM20 45v-6h12v6H20ZM20 45h-6v14h6V45ZM60 59h-6v24h6V59ZM66 59h6v24h-6V59ZM84 59h-6v24h6V59Z" fill="#000"/></svg>