<svg fill="none" xmlns="http://www.w3.org/2000/svg" viewBox="0 0 92 92"><path d="M6 41V27h12v6h8v6h6V21h8v8h6V15h12v14h6v-8h8v12h6v-6h8v24h-6v14h-6v12h-6v-6h-6v6H36v-6h-6v-6h-6v-6h-6V47h-6v-6H6Z" fill="#fff"/><path d="M6 47v-6h6v6H6ZM18 59h-6V47h6v12ZM24 65h-6v-6h6v6ZM30 71h-6v-6h6v6ZM62 77v6H30V71h6v6h26ZM68 77h-6v-6h6v6ZM80 65v18H68v-6h6V65h6ZM86 51v14h-6V51h6ZM58 15h20v6h14v30h-6V27h-8v6h-6V21h-8v8h-6V15ZM46 15V9h12v6H46ZM18 27h8V15h20v14h-6v-8h-8v18h-6v-6h-8v-6ZM6 27v-6h12v6H6ZM6 27H0v14h6V27ZM46 41h-6v24h6V41ZM52 41h6v24h-6V41ZM70 41h-6v24h6V41Z" fill="#000"/></svg>